<svg version="1.2" xmlns="http://www.w3.org/2000/svg" viewBox="0 0 24 24" width="24" height="24">
	<title>Новый проект</title>
	<style>
		.s0 { fill: #0db454 } 
	</style>
	<path id="D" class="s0" aria-label="D"  d="m7.3 4h-2.4v11.4h2.4q3 0 4.4-1.4 1.4-1.4 1.4-4.3 0-2.9-1.4-4.3-1.4-1.4-4.4-1.4zm-4.4 13v-14.6h4.1q4.2 0 6.2 1.8 2 1.7 2 5.5 0 3.8-2 5.5-2 1.8-6.2 1.8z"/>
	<path id="S" class="s0" aria-label="S"  d="m19 7.9v1.9q-1.1-0.5-2.1-0.8-1-0.2-2-0.2-1.6 0-2.4 0.6-0.9 0.6-0.9 1.8 0 0.9 0.6 1.4 0.6 0.5 2.2 0.8l1.2 0.3q2.2 0.4 3.2 1.4 1.1 1.1 1.1 2.9 0 2.1-1.5 3.2-1.4 1.1-4.1 1.1-1 0-2.2-0.3-1.2-0.2-2.4-0.6v-2.1q1.2 0.7 2.3 1 1.2 0.4 2.3 0.4 1.7 0 2.6-0.7 0.9-0.6 0.9-1.9 0-1.1-0.7-1.7-0.6-0.6-2.1-0.9l-1.2-0.2q-2.2-0.4-3.2-1.4-1-0.9-1-2.6 0-1.9 1.4-3 1.3-1.1 3.7-1.1 1.1 0 2.1 0.1 1.1 0.2 2.2 0.6z"/>
</svg>